<svg width="95" height="68" viewBox="0 0 95 68" fill="none" xmlns="http://www.w3.org/2000/svg">
<path d="M67.6787 6.07042C65.928 11.7882 66.1625 18.3288 63.4505 23.7562C59.158 32.3555 53.8726 18.1323 50.8231 15.205C47.2006 11.7293 41.3596 7.85378 37.1399 11.593C32.9306 15.3224 32.251 22.6147 30.9283 27.7656C29.9371 31.6064 28.443 41.2542 23.2901 41.9025C17.936 42.5845 13.8394 32.5507 7.98633 35.7382C3.2834 38.3016 0.846953 48.0098 0.474883 52.8405C0.15638 56.9225 0.488114 67.3681 6.61421 67.2707C7.53501 67.2596 9.15874 66.5303 10.2684 65.6048C10.8001 65.2413 11.2862 64.7363 11.6883 64.0386C14.1096 59.9027 9.6639 49.5178 16.0101 48.1467C22.4067 46.7671 25.122 56.8174 30.5877 58.6302C36.6475 60.6417 40.6674 53.0744 41.1061 47.7155C41.3983 44.1529 37.7895 34.5147 41.0698 31.3763C45.4432 27.2017 51.992 37.2026 54.6303 39.2065C58.7539 42.3377 65.5024 45.9917 69.3909 40.6914C73.3211 35.3423 72.1469 28.1418 74.1568 22.132C74.9073 19.9045 75.8358 17.4225 78.4127 16.9233C81.4426 16.3383 82.8546 19.7944 84.7243 21.7441C86.7297 23.8282 88.895 26.2375 91.884 24.4105C94.1591 23.0114 94.9192 20.474 94.3441 18.0848C92.2738 9.47542 72.3502 -9.17024 67.6787 6.07042Z" fill="#CC0955"/>
</svg>
